<?xml version="1.0" encoding="utf-8"?>

<!DOCTYPE svg PUBLIC "-//W3C//DTD SVG 1.1//EN" "http://www.w3.org/Graphics/SVG/1.1/DTD/svg11.dtd">
<svg version="1.1" id="Layer_1" xmlns="http://www.w3.org/2000/svg" xmlns:xlink="http://www.w3.org/1999/xlink" x="0px" y="0px"
	 viewBox="0 0 504.221 1672.042" enable-background="new 0 0 504.221 1672.042" xml:space="preserve">
<path fill="#100D0D" d="M217.321,37.416c-3.212-1.376-7.341-1.835-10.552-0.918c-0.918,0.459-0.918,1.376,0,1.835
	c0.918,0.459,2.294,0.459,3.212,0.918c0,0.459,0,0.918,0.459,1.376c29.363,45.879,17.434,105.981,4.129,155.071
	c-9.635,35.327-22.94,68.819-37.162,102.31c-0.918-0.918-3.212-0.918-3.67,0.918c-0.918,4.129-1.835,8.717-1.835,12.846
	c-5.506,13.764-11.47,27.527-16.975,41.291c-1.376,3.212-2.294,5.964-3.67,9.176c-0.918-0.918-2.753-0.459-2.753,1.376
	c-0.459,2.294-0.459,4.588-0.459,7.341c-6.423,16.517-12.846,33.492-18.81,50.467c-0.918-0.459-2.294-0.459-2.294,0.918
	c-0.459,2.753-0.918,5.964-0.918,8.717c-21.563,59.643-40.832,120.662-55.514,182.14c-4.129,11.47-6.882,23.857-8.258,36.703
	c-1.376,5.506-2.294,11.47-3.212,16.975c-2.753,5.047-3.67,11.47-3.212,18.352c-3.67,21.104-6.882,42.209-8.717,63.313
	c-14.681,137.179,5.506,273.44,49.549,403.736c20.646,61.478,44.961,122.956,74.324,180.764
	c13.764,27.527,30.739,53.22,49.549,77.995c17.893,23.857,39.456,51.844,43.585,82.124c0,1.376,1.835,1.835,2.753,1.835
	c11.47,39.915,24.775,81.665,45.879,116.992c5.964,10.552,14.681,21.563,27.069,23.857c11.47,1.835,20.187-11.011,20.187-20.646
	c0-6.423-0.459-11.929-4.129-17.434c-0.918-1.835-3.212-1.376-4.129,0.459c-11.47-26.151-24.775-51.385-37.162-77.077
	c0,0,0,0,0-0.459c0.459-34.868,27.069-64.69,38.997-96.346c9.176-24.775,17.434-53.22,15.14-80.747
	c0.459-2.294,0.459-4.129,0.918-6.423c0-0.917-1.376-0.917-1.835-0.459c-0.459-3.212-0.918-6.423-1.835-10.093
	c0-0.459-0.459-0.459-0.459-0.459c2.753-8.717,4.588-17.434,5.047-26.151c0-0.459-0.459-0.918-0.918-0.918
	c7.341-11.47,13.305-24.316,17.434-37.621c0-0.459,0.459-1.376,0.459-1.835c0,0,0,0,0-0.459c3.212-10.552,5.506-21.104,7.341-31.656
	c3.212-5.505,6.423-11.011,8.258-17.434c3.67-8.258,6.882-18.352,6.423-27.527c5.047-9.176,8.717-18.352,11.929-28.445l0,0
	c7.8-19.269,21.563-47.255,12.387-68.819c3.67-14.223,4.588-28.904,0.918-42.668c3.212-7.341,5.047-14.681,4.588-22.94
	c0-0.459-0.459-0.918-0.918-0.918c11.47-18.81,14.223-42.209,16.058-64.231c0-0.918-0.918-1.376-1.376-0.918
	c8.258-13.764,8.717-33.492,7.341-50.467c0.459,0.459,0.459,0.918,0.918,1.376h0.459c-1.376-6.423-1.835-13.305-2.753-19.728
	c-0.459-4.588,0-10.552-1.835-15.14c4.129-11.47,4.588-24.316,1.376-38.997l0.459-0.459c0.459-13.764-1.376-29.821-10.552-40.832
	c2.294-8.717,3.212-18.352,3.212-27.528c0.459,0,0.918,0,0.918-0.459c1.376-33.492-0.918-70.195-16.058-100.475
	c2.753-20.646,1.376-42.209-5.964-62.854c-0.459-3.212-1.376-5.964-2.294-9.176c-1.376-5.506-2.753-12.387-5.964-17.434
	c4.588-24.775,4.129-50.467-1.376-75.242c-0.459-0.918-1.376-1.376-1.835-0.918c-0.459-0.918-0.459-1.835-0.918-2.753
	c-0.918-3.212-2.294-7.341-4.129-11.011c1.376-23.857-1.835-47.714-11.47-68.819l0,0c-0.459-0.918-0.918-1.835-1.376-2.753
	c0,0,0,0,0-0.459v-0.459c-0.918-1.835-1.835-3.67-2.753-5.047c-0.459-0.459-0.459-0.918-0.918-0.918
	c-0.918-1.835-2.294-3.67-4.129-5.047c2.294-23.857-1.376-46.338-17.434-61.019c-1.376-2.294-2.753-4.129-4.129-6.423
	c-2.753-3.67-5.047-8.258-8.717-11.929c0-14.223-1.835-28.445-6.882-42.209c-1.376-5.506-4.588-10.552-7.341-15.14
	c-3.212-5.047-7.341-11.011-12.387-15.14c-1.835-12.846-5.964-24.775-13.305-36.244c-0.459-0.459-0.459-0.459-0.918-0.459
	c-0.459-0.918-0.918-1.835-1.376-3.212c-1.835-3.212-3.67-7.799-6.423-11.011c-1.376-30.28-15.599-60.102-33.033-83.959
	c-5.964-11.47-13.305-22.022-20.187-32.574c-10.552-15.14-22.94-32.574-39.456-42.209C218.697,35.581,217.321,36.498,217.321,37.416
	z M270.082,379.674c0,24.316-0.459,49.091-1.376,73.407c-11.011-31.198-14.681-65.148-27.527-95.428
	c-14.223-33.492-38.538-60.561-41.75-98.181c5.964-15.14,11.47-30.28,16.058-45.879c2.294,18.352,11.011,34.868,21.104,50.467
	c15.599,23.857,28.445,44.044,33.951,72.489C270.54,350.312,270.54,364.993,270.082,379.674z M266.411,534.746
	c-12.387-34.868-24.316-69.736-38.538-103.687c-17.893-41.291-48.632-72.489-49.549-117.909c2.753-6.423,5.047-12.387,7.8-18.81
	c-2.294,33.033,14.681,66.525,34.409,92.676c0.918,0.918,2.294,0,1.835-0.918c-20.187-35.327-42.209-72.03-27.069-113.78
	c0-0.459,0-0.918,0-0.918c0.459-1.376,0.918-2.294,1.376-3.67c2.294,27.069,20.187,50.926,33.492,73.865
	c21.104,37.162,23.857,81.206,38.997,120.662C268.246,486.114,267.329,510.43,266.411,534.746z M172.359,325.996
	c4.129,30.28,25.234,59.184,40.374,83.5c25.234,40.374,34.409,89.005,52.761,132.591c-0.918,20.187-1.835,40.374-3.212,60.56
	c-0.459,9.176-0.918,18.352-1.835,27.527c-4.129-14.681-5.506-29.821-8.717-44.961c-5.964-25.692-18.352-52.302-30.28-75.701
	c-23.398-45.42-61.937-83.959-68.819-135.802C159.513,357.652,165.936,341.595,172.359,325.996z M254.024,738.908
	c-19.269-49.091-27.527-102.31-53.22-148.648c-21.104-38.997-46.797-72.489-60.561-112.404c-2.753-11.011-4.588-22.481-5.047-33.951
	c-0.459-21.563,11.011-38.538,13.764-58.725c0-0.459,0.459-0.459,0.459-0.918c5.964,41.291,41.291,78.912,61.019,113.322
	c16.517,28.904,31.657,60.56,38.997,93.593c3.212,15.14,3.212,33.492,11.011,47.255
	C258.153,671.924,256.318,705.416,254.024,738.908z M212.733,763.682c12.387,27.527,16.517,59.184,33.033,84.418
	c0.459,0.459,0.918,0.459,0.918,0c-0.918,12.387-1.376,24.775-2.294,37.162C217.321,758.636,86.565,676.971,94.365,539.792
	c4.129-13.305,8.258-26.151,12.387-39.456c0.459,45.42,37.162,94.97,58.267,129.838c36.703,59.643,67.901,123.415,83.5,191.775
	c-0.459,8.258-0.918,16.516-1.376,24.775c-14.681-26.61-18.81-57.349-33.492-83.959
	C213.192,762.765,212.274,763.224,212.733,763.682z M70.507,724.226c0.459,0,0.918-0.459,0.918-0.918
	c2.753,7.799,5.964,15.14,10.093,21.563c0.459,0.918,2.294,0.459,1.835-0.918c-7.8-21.104-13.305-42.209-15.14-65.148
	c-1.835-24.316,3.67-47.255,7.341-70.654c0-0.459,0.459-1.376,0.459-1.835c-1.835,61.937,25.692,117.909,58.267,169.753
	c17.893,27.986,40.374,52.302,60.561,78.453c22.022,28.445,35.786,58.267,45.42,92.676c-0.918,13.764-1.376,27.527-2.294,40.832
	c-7.8-48.173-48.173-88.547-78.453-123.415c-21.563-25.234-42.668-50.926-61.478-77.995
	C85.189,766.435,76.472,746.248,70.507,724.226z M156.301,800.386c-21.104-27.527-38.538-58.267-53.22-89.923
	c-18.352-39.456-25.692-74.783-22.94-117.909c0-0.459,0-0.918-0.459-0.918c2.753-10.552,5.506-20.646,8.258-31.198
	c-0.459,51.843,30.739,105.981,57.349,147.272c37.162,57.349,81.665,111.028,97.264,179.387c0,0.918,0.918,0.918,1.376,0.459
	c-0.918,16.516-1.835,33.033-2.753,49.549C230.167,882.968,188.417,842.594,156.301,800.386z M184.288,655.867
	c-13.764-25.692-29.363-50.467-43.585-76.159c-16.975-30.739-28.445-59.643-28.904-94.052c4.588-13.305,9.176-26.61,14.223-39.915
	c2.753,46.338,36.244,89.464,60.102,127.544c33.951,53.679,42.209,114.698,67.442,172.047c-1.376,23.857-3.212,47.714-4.588,71.571
	C238.425,760.012,210.898,705.875,184.288,655.867z M130.609,431.976v0.459C130.609,432.435,130.609,432.435,130.609,431.976
	L130.609,431.976z M52.156,739.825c1.376-13.764,3.212-27.527,5.506-40.832c0.918,4.129,2.294,8.258,3.67,11.929
	c6.423,46.338,41.291,89.464,69.278,123.874c41.291,50.926,90.841,96.805,106.44,162.871c0,0.459,0.459,0.459,0.459,0.459
	c-0.918,14.681-1.376,29.363-2.294,44.044c-11.011-23.857-17.893-47.255-33.033-69.736c-16.058-24.316-36.703-45.42-56.89-66.525
	c-41.291-43.126-80.288-81.665-89.464-143.143c0-0.918-1.835-0.918-1.835,0c0.918,50.467,37.162,91.299,70.195,125.709
	c20.646,21.563,41.75,42.668,60.56,65.607c11.47,14.223,22.481,29.821,30.739,46.338c7.799,15.14,11.47,32.115,19.269,47.256
	c0,0.918,0,2.294,0,3.212c-0.459,12.846-0.918,26.151-1.376,38.997c-8.717-17.434-13.305-36.245-24.775-52.761
	c-13.764-19.728-32.115-36.244-49.091-52.761c-36.703-37.162-69.278-73.407-91.299-120.662c-0.459-0.459-0.918,0-0.918,0.459
	c12.387,42.209,45.42,76.159,75.242,107.357c17.893,18.81,37.621,35.327,55.055,54.596c18.352,20.646,22.94,45.42,35.327,68.819
	c-0.459,13.305-0.918,27.069-1.376,40.374c-13.764-50.467-50.926-89.464-85.794-126.626c-18.81-20.187-39.456-39.456-57.808-60.102
	c-12.387-14.223-21.563-27.986-28.445-43.126c6.882,13.305,15.599,25.692,25.234,36.244c0.918,0.918,2.753-0.459,2.294-1.835
	c-11.929-19.269-23.398-38.08-31.198-59.184c-5.964-16.516-7.8-33.951-9.176-51.843C47.568,799.927,49.403,770.106,52.156,739.825z
	 M59.496,971.974c22.94,41.291,54.596,73.865,89.005,105.522c35.786,33.492,74.783,72.03,83.041,122.497c0,15.14,0,29.821,0,44.962
	c-5.047-15.599-11.47-31.198-20.646-44.962c-13.764-20.187-33.492-37.621-50.467-55.514c-17.434-18.352-34.409-37.162-50.467-56.431
	c-14.681-17.434-44.044-50.926-44.961-75.242c0-0.459-0.459-0.918-0.918-0.918c-7.8-41.291-12.846-83.041-15.14-124.791
	c10.552,39.456,41.75,71.571,70.195,99.558c46.338,46.338,89.923,91.758,111.945,154.613c0.459,0.917,0.918,0.917,1.835,0.917
	c-0.459,13.764-0.459,27.528-0.918,41.291c-8.717-32.574-33.951-61.019-56.431-84.418
	C135.197,1057.309,90.694,1021.982,59.496,971.974C59.496,971.515,59.496,971.974,59.496,971.974z M69.59,1038.498L69.59,1038.498
	c-0.459-0.459-0.459-0.918-0.918-1.835C69.131,1037.122,69.59,1038.04,69.59,1038.498z M126.48,1149.985
	c-11.47-16.058-23.398-31.657-33.033-48.632c-10.552-18.81-15.599-38.08-21.104-58.266c3.67,6.882,7.8,12.846,11.011,17.893
	c13.305,21.104,31.657,39.915,48.173,58.725c19.728,21.563,39.915,42.209,60.102,63.313c19.728,21.104,27.527,43.126,39.456,67.442
	c0,8.717,0,16.975,0,25.692c0,3.212,0,6.423,0.459,9.635c-32.574-73.406-114.698-108.733-145.437-181.681
	c10.552,19.269,23.857,36.703,37.162,48.173C125.104,1153.196,127.397,1151.82,126.48,1149.985z M92.988,1127.504
	c14.681,24.316,36.244,43.585,57.349,62.396c33.951,30.739,61.478,61.937,81.665,102.769c0,5.047,0.459,10.552,0.459,15.599
	c-11.011-26.61-31.198-54.137-57.349-66.066c-0.918-0.459-1.835,0.918-0.918,1.376c25.692,18.81,45.879,41.291,57.808,71.113
	c0.459,0.459,0.918,0.918,1.376,0.918c0.459,5.964,0.918,11.47,1.376,17.434c-16.058-31.657-35.786-59.643-63.772-82.124
	c-30.28-23.857-45.879-51.385-63.772-84.418c0-0.459-0.459-0.459-0.918-0.459C101.246,1153.196,97.117,1140.35,92.988,1127.504z
	 M142.996,1263.765c9.176,11.011,20.646,21.104,30.739,29.821c27.527,23.857,48.632,50.467,64.69,83.5
	c0.459,0.459,0.918,0.918,1.376,0.918c2.294,14.223,4.588,27.986,7.341,42.209c-10.093-21.104-25.234-39.915-39.915-58.266
	c-20.646-25.692-38.538-51.843-56.89-79.371C148.043,1276.152,145.29,1270.188,142.996,1263.765z M192.087,1304.139
	c-22.94-22.481-44.503-38.997-60.102-67.901c-4.129-10.552-8.258-21.563-12.387-32.115c9.176,14.223,21.104,26.61,33.033,37.621
	c14.681,13.305,30.28,23.857,43.585,38.538c16.058,17.434,26.61,38.997,38.538,59.184c0.918,10.093,2.294,19.728,3.67,29.821
	C226.496,1344.512,211.356,1323.408,192.087,1304.139z M193.922,1365.617c-10.093-16.058-19.269-32.574-27.527-49.549
	c7.8,11.011,16.517,21.563,24.775,31.656c21.104,26.151,40.374,51.844,57.349,80.747c0,0,0.459,0,0.459,0.459
	c1.835,8.717,4.129,17.893,5.964,26.61C239.343,1422.965,211.815,1394.062,193.922,1365.617z M326.513,1622.998
	c-8.258-7.341-13.305-17.434-18.352-27.069c-8.717-16.516-15.14-34.868-21.563-52.302c-22.481-60.56-38.08-124.791-46.338-189.022
	c-4.129-32.115-5.506-64.69-5.506-97.723l0,0h0.459c0-0.459-0.459-0.918-0.459-1.376c0-32.115,0.918-64.231,1.376-96.346
	c1.376-68.819,4.588-137.637,8.258-206.456c5.506-103.228,13.305-206.456,19.728-310.143c0.459,0,0.918-0.918,0.459-1.376
	c0-0.459-0.459-0.918-0.459-1.376c0.918-17.893,2.294-35.327,3.212-53.22c-0.459,16.058-0.459,32.574-0.918,48.632
	c-0.459,2.294-0.918,5.047-1.376,7.341c0,0.918,0.459,0.918,1.376,1.376c0,5.506-0.459,11.011-0.459,16.516
	c0,1.376-0.459,2.753-0.459,4.129c0,0.459,0,0.459,0.459,0.918c-0.918,38.997-2.294,77.995-3.212,116.992
	c-1.835,68.36-7.341,136.72-11.929,205.08c-0.459,2.753-0.918,5.506-0.918,8.258c0,0.459,0,0.918,0.459,0.918
	c-1.835,24.775-3.212,50.008-4.129,75.242c-1.376,35.786-2.294,71.113-1.376,106.44c0,0.459-0.459,0.918-0.459,1.376
	c0,0.459,0,0.918,0.459,1.376c1.376,60.102,6.423,120.203,16.517,180.305c5.964,35.327,13.305,69.736,25.234,102.769
	c0.459,1.835,0.918,4.129,1.376,5.964c0,0.918,0.918,1.376,1.376,1.376c2.294,5.505,4.588,11.47,6.882,16.975
	c17.434,39.915,37.621,78.912,57.349,117.451C356.793,1622.081,340.735,1635.845,326.513,1622.998z M248.06,1110.07
	c0.459-0.459,0.918-0.917,0.918-1.376c-0.459,1.376-0.918,3.212-1.376,4.588C248.06,1112.364,248.06,1110.987,248.06,1110.07
	L248.06,1110.07z M252.648,1232.567c-0.459,1.835-0.918,3.212-1.835,5.047c0.459-1.835,0.918-4.129,1.376-5.964
	C252.648,1232.108,252.648,1232.108,252.648,1232.567L252.648,1232.567z M343.029,1441.776
	c-11.47,25.234-29.821,46.797-31.198,75.242c-1.835-3.67-3.67-7.341-5.047-11.011l0.459-0.459c-0.918-3.67-2.294-6.423-2.294-10.093
	c0-5.964,3.212-11.929,5.506-16.975c4.129-8.258,9.635-15.14,14.223-22.481c0.459-0.918-0.459-1.376-0.918-0.918
	c-7.799,6.882-14.223,17.434-17.893,26.61c-1.376,3.212-3.212,8.717-3.67,13.305c-0.918-1.835-1.376-3.212-2.294-5.047
	c0.459,0,0.918-0.459,0.459-1.376c-6.882-31.656,24.316-50.926,42.209-71.571c11.929-13.764,18.81-32.574,21.563-51.385
	C361.84,1392.226,354.04,1417.46,343.029,1441.776z M365.051,1341.301c-2.753,8.717-5.506,16.975-9.635,24.775
	c-5.047,10.093-13.305,17.893-19.269,27.069c-0.459,0.918,0.459,1.835,1.376,1.376c10.093-5.964,18.352-17.434,23.398-30.28
	c-5.506,30.28-21.563,51.843-44.044,74.783c-12.846,12.846-22.022,27.069-19.728,44.962c-2.294-5.047-4.129-10.093-5.964-15.599
	c-8.717-35.786,21.104-60.102,40.374-85.794c12.387-16.516,25.234-35.327,32.115-55.514
	C364.593,1331.666,365.051,1336.713,365.051,1341.301z M430.2,1110.529c-0.459-0.459-0.918-0.459-1.376,0.459
	c-7.341,22.022-11.47,44.962-20.646,66.525c0-0.459,0-0.918,0-1.376c-0.459-1.376-1.835-0.917-2.294,0
	c-0.918,3.212-1.376,6.423-1.835,10.093c0,0,0,0.459-0.459,0.459c-14.223,25.234-39.456,38.997-65.148,50.008
	c-34.409,15.14-86.253,39.456-79.83,85.335c0,0.459,0.918,0.459,0.918,0c5.047-64.231,72.03-72.489,116.074-102.31
	c11.011-7.341,20.187-16.975,27.069-27.986c0,1.376-0.459,2.753-0.459,4.129c-0.459,3.67-1.376,7.341-2.294,11.011
	c-8.258,17.893-17.434,32.574-33.492,45.879c-17.893,15.14-38.997,26.151-58.267,38.997c-24.316,16.058-49.549,45.42-39.915,76.159
	c0,0.459,0.459,0.459,0.459,0c-2.294-73.406,83.959-86.253,121.121-136.261c-3.212,11.47-5.964,22.481-9.635,33.492
	c-10.552,18.352-25.234,27.527-45.879,35.786c-13.305,5.505-29.363,12.387-38.08,24.316c-0.459,0.459,0.459,0.918,0.918,0.918
	c10.093-8.258,17.893-14.681,30.28-19.728c8.258-3.67,16.975-6.423,25.233-10.093c8.717-4.129,16.058-9.635,21.563-16.517
	c-0.459,1.376-1.376,3.212-2.294,4.588c-9.176,18.81-23.857,33.492-38.538,47.714c-27.986,26.61-67.442,55.055-52.761,99.099h0.459
	c-6.423-56.89,41.291-80.288,74.324-117.451c3.67-4.129,6.882-8.258,10.093-12.846c-11.929,40.832-31.198,70.195-58.267,103.228
	c-11.929,14.681-21.563,30.739-22.481,48.173c-9.635-29.821-16.517-60.56-22.022-92.676c-4.588-26.61-7.799-53.22-10.552-80.288
	c3.67-58.725,73.407-75.242,113.321-104.604c24.316-17.893,50.926-47.714,62.854-80.288
	C430.2,1100.894,430.659,1105.482,430.2,1110.529z M399.461,1139.432c-18.81,24.316-44.044,41.291-70.654,55.973
	c-27.986,15.599-73.865,39.456-76.159,75.701c-0.918-8.717-1.376-17.434-1.835-26.151c7.341-23.398,17.893-42.668,40.374-55.514
	c15.14-8.717,32.574-11.929,45.42-25.234c0.459-0.459-0.459-1.376-0.918-0.917c-17.893,14.223-42.668,17.434-59.184,32.574
	c-10.093,9.176-16.975,20.187-21.563,32.115c5.506-53.679,61.937-94.97,103.687-122.039c20.646-13.305,55.514-31.656,71.571-56.431
	C429.282,1083.46,421.483,1110.987,399.461,1139.432z M331.56,1120.163c-28.445,22.481-75.701,59.184-79.371,100.017
	c-0.918,2.753-1.835,5.964-2.753,8.717c-0.918-16.975-1.376-33.95-1.835-50.926c22.481-61.478,75.242-103.228,134.885-126.168
	c17.434-6.882,39.915-13.305,52.302-29.363C419.189,1071.99,369.181,1090.342,331.56,1120.163z M413.683,1034.828
	c-23.398,14.681-51.843,21.104-75.701,35.327c-40.374,23.398-73.407,57.349-90.382,100.934c-0.459-15.599-0.459-31.198,0-46.797
	c0.459,0,1.376-0.459,1.376-1.376c0.918-7.799,3.67-15.599,7.341-22.94c2.753-3.67,5.506-7.799,8.258-11.929
	c16.058-19.269,41.291-34.409,61.937-40.374c23.857-6.882,50.467-6.423,66.066-27.986c0.918-0.918-0.918-1.835-1.835-1.376
	c-27.986,24.775-66.984,21.104-97.722,41.291c-7.341,5.047-15.14,10.552-22.022,16.975c5.964-10.093,12.387-20.187,20.187-28.445
	c26.151-27.986,60.102-46.338,96.805-56.431c24.316-6.882,47.255-14.223,61.937-35.786c0.459-0.459,0.459-0.918,0.918-1.376
	C441.669,985.737,446.257,1014.641,413.683,1034.828z M455.433,888.474L455.433,888.474
	C455.433,888.932,455.433,888.932,455.433,888.474c-4.588,34.868,4.129,64.69-31.657,86.253
	c-24.775,14.681-55.973,16.975-81.665,30.739c-39.456,21.104-77.077,59.184-94.511,101.393c0.459-14.223,0.918-28.445,1.376-43.126
	c0-3.212,0.459-6.423,0.459-9.176c0,0,0.459,0,0.459-0.459c22.022-68.819,87.629-98.64,147.731-128.462
	c25.234-12.387,45.879-28.445,55.973-49.549C454.057,880.215,454.974,884.345,455.433,888.474z M452.68,806.809
	c1.376,4.588,1.835,9.176,2.294,13.764c0-0.459-0.459-0.918-0.459-0.918c-0.918-2.294-4.129-1.376-3.212,0.918
	c8.717,35.327,3.212,61.937-26.151,84.418c-21.563,16.516-48.173,26.61-72.03,38.997c-44.044,23.398-87.629,55.973-102.769,105.522
	c0.918-18.352,1.835-36.703,3.212-55.055c11.011-57.808,84.418-81.665,127.085-113.321c31.198-22.94,56.431-52.761,66.066-88.547
	C448.551,797.174,451.304,801.762,452.68,806.809z M444.422,697.158c4.129,16.975,4.588,33.951,5.047,51.385
	c-0.459-0.918-1.835-0.918-1.835,0.459c-4.588,35.327-8.258,64.69-31.198,93.135c-18.81,23.398-44.961,41.291-70.195,56.89
	c-31.657,19.728-77.995,40.832-92.217,78.453c0.918-11.011,1.376-21.563,2.294-32.574c0.918,0,1.376-0.459,1.376-1.376
	c2.753-68.819,102.769-80.289,136.261-129.838c0.459-0.918-0.459-1.376-1.376-0.918c-26.61,29.821-59.184,43.585-91.758,65.148
	c-18.81,12.387-38.08,30.739-44.044,53.22c0-2.294,0.459-4.588,0.459-6.882l0.459-0.459
	c1.835-73.407,86.712-116.074,130.297-165.165c22.94-25.692,39.456-57.808,45.879-91.299
	C437.999,676.971,442.128,686.605,444.422,697.158z M416.436,510.889C416.436,511.347,416.436,511.347,416.436,510.889
	c0,27.069,1.835,52.761-4.588,79.83c-7.799,31.198-26.151,58.725-45.42,83.959c-35.786,46.797-92.676,88.547-102.769,150.483
	c-0.459,1.376,1.835,2.294,2.294,0.459c15.599-67.901,78.453-112.404,117.451-166.541c17.434-24.316,30.28-53.22,36.244-83.041
	c0.918,3.67,2.294,6.882,3.212,10.093c0.459,1.376,0.918,3.212,1.376,4.588c0,0.459,0,0.459,0,0.918
	c0.918,4.129,1.376,8.258,1.835,12.387c-2.753,23.398-5.047,44.503-18.352,65.148c-0.459,0.918,0.459,1.376,1.376,0.918
	c10.093-9.176,16.975-27.528,19.728-44.961c0.459,8.258,0.918,16.058,0.918,23.857c-0.459-0.459-0.459-0.918-0.918-1.376
	c-0.459-0.918-2.294-0.459-1.835,0.918c0.918,1.835,1.376,4.129,2.294,5.964c-0.918,16.975-4.588,33.951-12.387,51.843
	c-14.223,32.115-38.997,58.267-64.69,81.206c-33.492,29.821-80.747,65.607-92.676,111.945c2.294-38.997,4.588-77.995,5.964-116.992
	c0.459-14.681,0.918-29.821,1.376-44.503c0.459,0,1.376,0,1.376-0.918c12.387-61.937,68.819-96.346,104.146-144.978
	c20.646-28.445,35.786-65.148,39.915-101.852C414.601,497.584,415.977,504.007,416.436,510.889z M393.038,405.825
	c0.459,0.918,1.376,1.835,1.835,2.753c8.258,22.022,12.387,43.126,11.929,64.69c-0.918-0.459-2.294,0-1.835,1.376
	c0.459,2.294,0.918,4.129,1.835,6.423c-0.918,13.305-3.212,26.61-6.882,40.832c-10.552,36.245-29.363,68.36-54.596,95.887
	c-30.28,33.492-70.654,66.525-78.912,113.321c0.459-22.481,1.376-45.42,1.835-67.901c9.635-44.961,50.008-66.984,76.618-100.934
	c0.459-0.459-0.459-1.376-0.918-0.918c-25.234,24.775-64.231,52.302-75.701,88.547c0-3.67,0-7.799,0.459-11.47
	c13.305-63.772,75.242-105.981,100.934-164.247c7.8-17.893,17.434-44.503,21.104-70.195
	C391.661,403.99,392.579,404.908,393.038,405.825z M365.969,331.96c3.67,5.506,6.882,11.011,10.093,16.517
	c21.563,48.173,1.835,107.357-24.316,150.942c-25.692,42.668-68.36,77.536-82.582,126.168c0.459-22.022,0.918-44.044,0.918-66.066
	c14.681-56.431,43.126-103.228,68.36-155.53c11.47-23.398,20.646-50.926,22.481-78.453
	C362.757,328.29,364.593,330.125,365.969,331.96z M342.112,263.6c2.294,3.67,4.129,7.341,5.964,11.011
	c5.506,26.61,9.176,50.467,3.212,77.995c-5.964,26.61-18.352,51.843-30.739,76.159c-18.352,36.244-42.668,74.324-50.008,115.615
	c0-0.918,0-1.835,0-3.212c1.835-35.327,2.753-70.654,3.67-105.981c0-0.459,0.459-0.459,0.459-0.918
	c5.047-45.879,30.739-81.665,49.549-122.497c8.258-17.434,12.846-37.162,11.929-56.431
	C337.983,258.095,340.277,260.847,342.112,263.6z M313.208,206.71c3.67,5.964,5.964,11.929,9.176,17.893
	c0.459,0.459,0.918,0.918,0.918,0.918c4.588,17.434,7.8,34.409,4.588,53.679c-3.212,19.269-12.846,37.621-21.563,54.596
	c-12.846,25.234-26.151,50.008-32.115,77.077c0.459-20.187,0.459-40.374,0.918-60.561c0.459,0.459,1.835,0,1.835-0.918
	c2.294-7.341,0.918-16.517,0.918-23.857c0-2.294,0-4.588,0.459-6.882c0.918,0,1.376-0.459,1.835-1.376
	c3.67-39.915,30.28-72.03,32.574-111.945C312.749,205.792,312.749,206.251,313.208,206.71z M254.483,81.001
	c10.093,14.223,17.893,29.363,27.527,43.585c11.011,22.022,20.646,44.044,23.398,67.901v0.459c0,0.918,0,1.376,0.459,2.294
	c0.918,10.093,0.459,20.646-1.376,31.657c-4.588,26.151-20.646,49.091-25.692,74.783c-1.376,2.753-2.753,5.506-3.212,8.258
	c0-31.657-1.376-63.772-6.423-94.511c1.835-49.091,4.129-110.11-32.115-145.896c-0.918-0.918-2.294,0.459-1.835,1.376
	c16.058,30.739,26.61,57.349,29.363,92.217c0.918,11.011,0.918,21.563,0.918,32.574c-2.753-11.47-5.964-22.94-10.093-33.951
	c-0.918-1.835-3.67-0.918-2.753,0.918c7.799,27.986,12.387,55.973,15.14,83.959c-1.835-5.047-4.588-9.635-6.882-14.223
	c-11.47-23.398-22.481-42.668-21.563-69.278c0-1.376-1.835-1.376-2.294-0.459c-4.588,14.223-0.459,28.904,5.506,42.209
	c9.176,20.187,19.728,38.08,26.61,59.184c1.376,16.975,1.835,33.492,1.835,50.467c-3.67-12.387-10.552-23.857-16.975-34.409
	c-15.599-25.234-31.657-46.797-34.409-77.077c3.67-12.387,6.882-25.234,9.635-38.08c8.258-40.374,11.929-88.088-11.47-123.874h0.459
	c1.376,0.459,2.753,0.918,4.129,1.835C232.461,55.309,244.389,66.779,254.483,81.001z"/>
</svg>
